<svg width="43" height="37" viewBox="0 0 43 37" fill="none" xmlns="http://www.w3.org/2000/svg">
<rect x="7" width="36" height="36" rx="7" fill="#FF0000"/>
<g filter="url(#filter0_d)">
<rect x="4" y="18" width="28" height="11" rx="2" fill="white"/>
<path d="M11.592 24.104H12.384C12.5973 24.104 12.776 24.0667 12.92 23.992C13.064 23.9173 13.176 23.8267 13.256 23.72C13.3413 23.6133 13.4 23.4987 13.432 23.376C13.4693 23.2533 13.488 23.144 13.488 23.048C13.488 22.9467 13.4693 22.8373 13.432 22.72C13.4 22.5973 13.3413 22.4853 13.256 22.384C13.1707 22.2773 13.056 22.1893 12.912 22.12C12.7733 22.0507 12.6 22.016 12.392 22.016H11.592V24.104ZM10.712 27V21.2H12.296C12.6 21.2 12.8773 21.24 13.128 21.32C13.384 21.4 13.6027 21.52 13.784 21.68C13.9707 21.8347 14.1147 22.0267 14.216 22.256C14.3173 22.48 14.368 22.7387 14.368 23.032C14.368 23.2613 14.3333 23.4907 14.264 23.72C14.1947 23.944 14.0827 24.1467 13.928 24.328C13.7733 24.504 13.5707 24.648 13.32 24.76C13.0693 24.872 12.7653 24.928 12.408 24.928H11.592V27H10.712ZM15.3292 21.2H16.7852C17.3719 21.2 17.8679 21.288 18.2732 21.464C18.6785 21.64 19.0065 21.872 19.2572 22.16C19.5132 22.4427 19.6972 22.7627 19.8092 23.12C19.9265 23.472 19.9852 23.824 19.9852 24.176C19.9852 24.608 19.9079 25 19.7532 25.352C19.5985 25.6987 19.3879 25.9947 19.1212 26.24C18.8545 26.4853 18.5452 26.6747 18.1932 26.808C17.8412 26.936 17.4679 27 17.0732 27H15.3292V21.2ZM16.9452 26.168C17.2545 26.168 17.5399 26.1227 17.8012 26.032C18.0679 25.9413 18.2972 25.8107 18.4892 25.64C18.6865 25.464 18.8385 25.2507 18.9452 25C19.0572 24.744 19.1132 24.4507 19.1132 24.12C19.1132 23.768 19.0519 23.4613 18.9292 23.2C18.8065 22.9387 18.6465 22.7227 18.4492 22.552C18.2519 22.376 18.0279 22.248 17.7772 22.168C17.5319 22.0827 17.2812 22.04 17.0252 22.04H16.2012V26.168H16.9452ZM21.0167 27V21.2H24.4887V22.008H21.8887V23.76H24.1607V24.576H21.8887V27H21.0167Z" fill="black"/>
</g>
<defs>
<filter id="filter0_d" x="0" y="18" width="36" height="19" filterUnits="userSpaceOnUse" color-interpolation-filters="sRGB">
<feFlood flood-opacity="0" result="BackgroundImageFix"/>
<feColorMatrix in="SourceAlpha" type="matrix" values="0 0 0 0 0 0 0 0 0 0 0 0 0 0 0 0 0 0 127 0"/>
<feOffset dy="4"/>
<feGaussianBlur stdDeviation="2"/>
<feColorMatrix type="matrix" values="0 0 0 0 0 0 0 0 0 0 0 0 0 0 0 0 0 0 0.25 0"/>
<feBlend mode="normal" in2="BackgroundImageFix" result="effect1_dropShadow"/>
<feBlend mode="normal" in="SourceGraphic" in2="effect1_dropShadow" result="shape"/>
</filter>
</defs>
</svg>
